<?xml version="1.0" ?><!DOCTYPE svg  PUBLIC '-//W3C//DTD SVG 1.1//EN'  'http://www.w3.org/Graphics/SVG/1.1/DTD/svg11.dtd'><svg height="512px" style="enable-background:new 0 0 512 512;" version="1.1" viewBox="0 0 512 512" width="512px" xml:space="preserve" xmlns="http://www.w3.org/2000/svg" xmlns:xlink="http://www.w3.org/1999/xlink"><g id="_x31_1_x2C_business_x2C_conference_x2C_meeting_x2C_presentation"><path d="M169.552,486.514h-21.82c4.561-3.354,8.311-7.742,10.912-12.816C161.244,478.771,164.993,483.16,169.552,486.514z    M353.355,473.699c-2.6,5.072-6.349,9.461-10.907,12.814h21.814C359.704,483.16,355.955,478.771,353.355,473.699z M223.552,473.697   c-2.601,5.074-6.351,9.463-10.912,12.816h21.82C229.9,483.16,226.152,478.771,223.552,473.697z M227.919,433.908   c0.228-0.275,0.465-0.541,0.701-0.811c0.186-0.211,0.37-0.424,0.561-0.631c0.219-0.236,0.443-0.469,0.667-0.699   c0.224-0.232,0.45-0.461,0.68-0.686c0.21-0.207,0.424-0.41,0.64-0.611c0.264-0.246,0.533-0.488,0.804-0.727   c0.195-0.172,0.39-0.344,0.589-0.51c0.326-0.275,0.659-0.541,0.994-0.805c0.156-0.123,0.31-0.248,0.468-0.367   c0.495-0.377,0.999-0.74,1.513-1.092c0.005-0.002,0.009-0.006,0.014-0.01c0.557-0.379,1.125-0.742,1.703-1.09   c0.003-0.002,0.006-0.004,0.008-0.006c0.552-0.332,1.114-0.646,1.684-0.949c0.09-0.049,0.183-0.094,0.273-0.141   c0.49-0.256,0.986-0.5,1.488-0.734c0.113-0.053,0.227-0.102,0.34-0.154c0.496-0.223,0.997-0.436,1.504-0.639   c0.107-0.043,0.214-0.086,0.321-0.127c0.544-0.211,1.094-0.408,1.649-0.594c0.065-0.021,0.129-0.045,0.195-0.066   c1.281-0.418,2.589-0.773,3.927-1.049c0.189-1.338,0.286-2.682,0.286-4.016c0-15.68-12.767-28.436-28.46-28.436   c-15.686,0-28.448,12.756-28.448,28.436c0,1.111,0.061,2.209,0.182,3.285c0.102,0.002,0.202,0.016,0.303,0.02   c0.618,0.023,1.231,0.063,1.841,0.117c0.153,0.012,0.309,0.02,0.462,0.035c0.678,0.068,1.349,0.16,2.015,0.266   c0.385,0.061,0.766,0.133,1.147,0.205c0.271,0.053,0.542,0.105,0.81,0.164c10.742,2.283,19.827,9.258,24.781,19.002   c0.093-0.182,0.198-0.355,0.294-0.535c0.09-0.166,0.182-0.332,0.274-0.496c0.211-0.381,0.425-0.758,0.648-1.127   c0.086-0.145,0.178-0.283,0.266-0.426c0.242-0.387,0.483-0.773,0.739-1.15c0.003-0.006,0.007-0.012,0.011-0.016   c0.564-0.834,1.166-1.637,1.794-2.418C227.701,434.186,227.807,434.043,227.919,433.908z M164.172,432.572   c0.308-0.336,0.623-0.664,0.943-0.988c0.127-0.129,0.254-0.26,0.383-0.387c0.29-0.285,0.584-0.566,0.883-0.842   c0.174-0.16,0.35-0.318,0.527-0.477c0.275-0.244,0.552-0.486,0.835-0.723c0.224-0.188,0.453-0.369,0.682-0.551   c0.252-0.201,0.502-0.404,0.759-0.598c0.333-0.252,0.674-0.492,1.016-0.732c0.166-0.115,0.327-0.238,0.495-0.352   c0.525-0.355,1.061-0.697,1.605-1.027c0.105-0.063,0.214-0.121,0.32-0.184c0.452-0.268,0.908-0.525,1.373-0.773   c0.145-0.078,0.293-0.15,0.439-0.227c0.436-0.225,0.876-0.443,1.322-0.65c0.151-0.07,0.304-0.139,0.457-0.207   c0.457-0.205,0.918-0.4,1.385-0.588c0.138-0.055,0.276-0.111,0.415-0.164c0.512-0.197,1.028-0.383,1.55-0.557   c0.093-0.031,0.186-0.064,0.28-0.096c1.272-0.414,2.573-0.768,3.902-1.041c0.186-1.318,0.28-2.662,0.28-4.014   c0-15.68-12.767-28.436-28.46-28.436c-15.686,0-28.447,12.756-28.447,28.436c0,1.102,0.063,2.199,0.188,3.285   c0.104,0.002,0.204,0.016,0.307,0.02c0.606,0.023,1.208,0.063,1.806,0.115c0.197,0.016,0.396,0.029,0.592,0.049   c0.636,0.066,1.268,0.152,1.894,0.25c0.411,0.064,0.816,0.143,1.223,0.221c0.236,0.045,0.471,0.092,0.705,0.141   c10.766,2.271,19.869,9.248,24.827,19c1.446-2.807,3.255-5.389,5.344-7.709C164.057,432.703,164.113,432.637,164.172,432.572z    M153.308,448.51c-0.069-0.217-0.144-0.428-0.218-0.643c-0.134-0.395-0.282-0.783-0.433-1.168   c-0.244-0.617-0.503-1.227-0.788-1.822c-0.018-0.037-0.035-0.074-0.052-0.111c-3.379-6.98-9.528-12.377-17.008-14.762   c-0.151-0.047-0.303-0.094-0.455-0.139c-0.521-0.156-1.048-0.295-1.58-0.422c-0.415-0.098-0.832-0.191-1.253-0.27   c-0.249-0.047-0.498-0.094-0.749-0.135c-0.637-0.102-1.278-0.188-1.927-0.246c-0.155-0.014-0.311-0.023-0.466-0.035   c-0.726-0.055-1.456-0.094-2.194-0.094c-0.6,0-1.188,0.025-1.76,0.061c-14.869,0.914-26.688,13.299-26.688,28.4   c0,15.693,12.762,28.461,28.448,28.461c15.693,0,28.46-12.768,28.46-28.461c0-2.277-0.277-4.492-0.785-6.617   C153.699,449.83,153.514,449.164,153.308,448.51z M293.425,433.207c0.228-0.262,0.454-0.521,0.688-0.775   c0.189-0.205,0.384-0.406,0.578-0.605c0.255-0.266,0.514-0.527,0.777-0.785c0.184-0.18,0.371-0.357,0.56-0.533   c0.294-0.275,0.593-0.543,0.896-0.809c0.169-0.148,0.338-0.297,0.51-0.441c0.359-0.303,0.727-0.598,1.098-0.889   c0.125-0.096,0.246-0.195,0.371-0.291c1.562-1.186,3.222-2.246,4.965-3.172c0.07-0.039,0.143-0.072,0.213-0.109   c0.511-0.268,1.027-0.523,1.552-0.766c0.099-0.045,0.196-0.09,0.296-0.133c0.51-0.232,1.025-0.451,1.548-0.658   c0.097-0.039,0.192-0.076,0.289-0.115c0.554-0.215,1.115-0.416,1.682-0.604c0.057-0.02,0.113-0.039,0.17-0.059   c1.284-0.42,2.596-0.777,3.938-1.053c0.18-1.305,0.271-2.646,0.271-4.014c0-15.68-12.762-28.436-28.447-28.436   s-28.447,12.756-28.447,28.436c0,1.111,0.061,2.209,0.182,3.285c0.102,0.002,0.201,0.016,0.303,0.02   c0.619,0.023,1.234,0.063,1.844,0.117c0.152,0.014,0.305,0.02,0.456,0.035c0.681,0.068,1.354,0.16,2.022,0.266   c0.377,0.061,0.75,0.131,1.124,0.201c0.281,0.055,0.563,0.111,0.842,0.17c10.728,2.289,19.805,9.26,24.762,18.998   c0.079-0.154,0.17-0.303,0.251-0.455c0.124-0.232,0.252-0.463,0.381-0.691c0.181-0.322,0.361-0.643,0.551-0.957   c0.134-0.223,0.273-0.438,0.412-0.656c0.197-0.314,0.393-0.629,0.599-0.934c0.14-0.207,0.287-0.406,0.431-0.609   c0.37-0.525,0.753-1.041,1.15-1.545c0.201-0.256,0.399-0.516,0.607-0.766C293.034,433.648,293.23,433.43,293.425,433.207z    M257.68,102.178c21.325,0,38.675-17.344,38.675-38.66c0-21.332-17.35-38.688-38.675-38.688c-21.333,0-38.687,17.355-38.687,38.688   C218.993,84.834,236.347,102.178,257.68,102.178z M358.315,433.223c0.234-0.27,0.469-0.537,0.711-0.801   c0.185-0.199,0.374-0.395,0.563-0.59c0.26-0.27,0.522-0.537,0.79-0.797c0.182-0.178,0.365-0.354,0.551-0.525   c0.297-0.279,0.6-0.551,0.905-0.818c0.167-0.146,0.332-0.291,0.501-0.434c0.362-0.307,0.732-0.604,1.107-0.895   c0.121-0.096,0.24-0.193,0.362-0.285c1.562-1.188,3.221-2.248,4.964-3.174c0.072-0.039,0.146-0.074,0.219-0.111   c0.509-0.266,1.023-0.521,1.546-0.762c0.098-0.047,0.196-0.09,0.295-0.135c0.512-0.232,1.028-0.451,1.552-0.66   c0.094-0.037,0.188-0.074,0.281-0.109c0.558-0.217,1.122-0.42,1.693-0.609c0.053-0.018,0.104-0.037,0.157-0.055   c1.284-0.42,2.597-0.777,3.939-1.053c0.186-1.318,0.279-2.66,0.279-4.014c0-15.68-12.762-28.436-28.447-28.436   c-15.693,0-28.461,12.756-28.461,28.436c0,1.102,0.063,2.199,0.188,3.285c0.101,0.002,0.2,0.016,0.301,0.02   c0.621,0.023,1.238,0.063,1.852,0.117c0.15,0.012,0.303,0.02,0.453,0.033c0.679,0.07,1.352,0.162,2.019,0.268   c0.386,0.061,0.767,0.133,1.147,0.205c0.27,0.051,0.538,0.105,0.806,0.162c10.741,2.283,19.828,9.254,24.785,18.994   c0.076-0.146,0.161-0.287,0.239-0.434c0.132-0.248,0.269-0.492,0.406-0.736c0.173-0.309,0.346-0.615,0.526-0.916   c0.145-0.24,0.296-0.475,0.445-0.711c0.188-0.295,0.371-0.594,0.566-0.883c0.171-0.254,0.352-0.498,0.528-0.746   c0.325-0.459,0.661-0.91,1.007-1.352c0.22-0.281,0.438-0.564,0.665-0.838C357.94,433.646,358.129,433.438,358.315,433.223z    M69.926,197.883v41.809l66.521,67.688v-66.746c0-2.209,1.791-4,4-4s4,1.791,4,4v142.066c3.506-1.125,7.239-1.738,11.114-1.738   c14.139,0,26.414,8.09,32.46,19.875c6.043-11.785,18.315-19.875,32.448-19.875c14.139,0,26.414,8.09,32.46,19.875   c6.043-11.785,18.315-19.875,32.448-19.875c14.134,0,26.404,8.09,32.448,19.875c6.046-11.785,18.321-19.875,32.46-19.875   c6.429,0,12.47,1.68,17.719,4.611V240.633c0-2.209,1.791-4,4-4s4,1.791,4,4v68.404l65.971-68.932v-42.223H69.926z M255.963,127.926   c-42.106,0-76.652,27.41-79.15,61.883h158.285C332.601,155.336,298.061,127.926,255.963,127.926z M348.114,448.813   c-0.13-0.426-0.271-0.846-0.42-1.262c-0.056-0.158-0.116-0.314-0.175-0.471c-3.06-8.086-9.696-14.424-17.971-17.068   c-0.169-0.055-0.338-0.105-0.509-0.156c-0.5-0.148-1.007-0.283-1.519-0.406c-0.427-0.1-0.855-0.195-1.289-0.277   c-0.244-0.047-0.489-0.092-0.736-0.131c-0.638-0.104-1.281-0.189-1.932-0.248c-0.153-0.014-0.308-0.023-0.462-0.035   c-0.726-0.055-1.456-0.094-2.194-0.094c-0.587,0-1.172,0.025-1.748,0.059c-0.329,0.021-0.656,0.045-0.982,0.076l-0.739,0.088   c-1.449,0.174-2.868,0.463-4.247,0.85c-0.037,0.01-0.074,0.021-0.111,0.031c-1.331,0.381-2.622,0.859-3.869,1.422   c-0.076,0.035-0.152,0.068-0.229,0.104c-0.604,0.279-1.197,0.578-1.778,0.898c-0.046,0.023-0.09,0.051-0.135,0.076   c-0.527,0.295-1.043,0.609-1.55,0.936c-0.097,0.063-0.195,0.123-0.291,0.186c-0.517,0.344-1.021,0.701-1.514,1.076   c-0.115,0.088-0.228,0.178-0.341,0.268c-0.404,0.316-0.8,0.645-1.187,0.982c-0.11,0.098-0.223,0.189-0.332,0.289   c-0.43,0.387-0.846,0.791-1.251,1.203c-0.147,0.15-0.29,0.303-0.434,0.455c-0.317,0.338-0.626,0.684-0.928,1.037   c-0.149,0.176-0.3,0.352-0.444,0.531c-0.307,0.377-0.601,0.764-0.887,1.154c-0.145,0.197-0.287,0.396-0.426,0.6   c-0.286,0.412-0.563,0.832-0.826,1.26c-0.133,0.215-0.258,0.434-0.384,0.65c-0.208,0.359-0.409,0.725-0.603,1.094   c-0.111,0.213-0.223,0.426-0.329,0.641c-0.245,0.502-0.479,1.01-0.695,1.527c-0.081,0.191-0.154,0.389-0.23,0.582   c-0.167,0.428-0.325,0.857-0.474,1.295c-0.06,0.178-0.123,0.354-0.18,0.531c-0.181,0.572-0.342,1.152-0.486,1.74   c-0.539,2.188-0.832,4.471-0.832,6.82c0,15.693,12.768,28.461,28.461,28.461c15.686,0,28.447-12.768,28.447-28.461   c0-2.381-0.298-4.691-0.851-6.904C348.386,449.746,348.255,449.277,348.114,448.813z M385.803,428.664   c-0.924,0-1.837,0.049-2.738,0.135l-0.731,0.088c-1.446,0.174-2.862,0.461-4.238,0.848c-0.041,0.012-0.082,0.023-0.123,0.035   c-1.327,0.381-2.614,0.857-3.857,1.418c-0.078,0.037-0.156,0.07-0.233,0.107c-0.604,0.279-1.196,0.576-1.776,0.896   c-0.045,0.023-0.089,0.051-0.134,0.076c-0.528,0.295-1.045,0.609-1.553,0.938c-0.095,0.061-0.19,0.121-0.285,0.184   c-0.518,0.342-1.024,0.703-1.52,1.078c-0.111,0.086-0.219,0.174-0.329,0.26c-0.41,0.322-0.811,0.654-1.203,0.998   c-0.105,0.092-0.214,0.182-0.317,0.275c-0.434,0.391-0.852,0.797-1.261,1.213c-0.142,0.145-0.28,0.293-0.419,0.441   c-0.326,0.346-0.643,0.701-0.951,1.063c-0.137,0.162-0.274,0.322-0.407,0.486c-0.316,0.389-0.62,0.787-0.915,1.191   c-0.14,0.191-0.277,0.385-0.413,0.58c-0.294,0.426-0.58,0.859-0.852,1.301c-0.122,0.199-0.236,0.402-0.354,0.604   c-0.214,0.367-0.42,0.74-0.617,1.119c-0.108,0.207-0.218,0.416-0.322,0.627c-0.246,0.504-0.48,1.014-0.698,1.533   c-0.079,0.189-0.151,0.385-0.228,0.576c-0.168,0.43-0.327,0.861-0.475,1.301c-0.06,0.176-0.123,0.352-0.18,0.529   c-0.18,0.57-0.341,1.15-0.485,1.736c-0.54,2.188-0.832,4.473-0.832,6.824c0,15.693,12.762,28.461,28.447,28.461   c15.693,0,28.461-12.768,28.461-28.461S401.496,428.664,385.803,428.664z M218.203,448.473c-0.055-0.17-0.114-0.338-0.172-0.508   c-0.163-0.484-0.343-0.959-0.531-1.43c-0.184-0.459-0.379-0.91-0.586-1.355c-0.083-0.182-0.169-0.363-0.256-0.545   c-3.384-6.898-9.477-12.232-16.884-14.611c-0.2-0.063-0.4-0.125-0.602-0.184c-0.469-0.139-0.943-0.266-1.422-0.381   c-0.445-0.105-0.893-0.205-1.345-0.289c-0.238-0.045-0.477-0.09-0.716-0.129c-0.641-0.104-1.288-0.189-1.941-0.248   c-0.152-0.014-0.306-0.023-0.458-0.035c-0.727-0.055-1.458-0.094-2.197-0.094c-0.587,0-1.172,0.025-1.748,0.059   c-0.332,0.021-0.663,0.045-0.992,0.076l-0.731,0.088c-1.441,0.174-2.85,0.459-4.221,0.844c-0.055,0.016-0.11,0.031-0.165,0.047   c-1.299,0.373-2.56,0.84-3.779,1.387c-0.113,0.051-0.227,0.102-0.34,0.154c-0.569,0.264-1.129,0.545-1.678,0.848   c-0.108,0.059-0.213,0.123-0.321,0.184c-0.44,0.25-0.873,0.512-1.299,0.783c-0.158,0.102-0.318,0.199-0.474,0.305   c-0.466,0.311-0.921,0.635-1.368,0.971c-0.192,0.145-0.379,0.297-0.567,0.445c-0.288,0.23-0.571,0.465-0.85,0.705   c-0.241,0.207-0.481,0.416-0.716,0.631c-0.323,0.297-0.639,0.602-0.948,0.914c-0.232,0.234-0.459,0.475-0.684,0.717   c-0.166,0.178-0.326,0.361-0.487,0.545c-0.405,0.461-0.796,0.934-1.171,1.422c-0.108,0.139-0.218,0.277-0.323,0.42   c-0.233,0.314-0.461,0.635-0.682,0.959c-0.066,0.098-0.129,0.197-0.194,0.297c-0.406,0.613-0.79,1.244-1.148,1.891   c-0.064,0.117-0.129,0.232-0.192,0.35c-0.593,1.104-1.114,2.252-1.559,3.436c-0.055,0.148-0.109,0.295-0.162,0.443   c-0.256,0.719-0.484,1.449-0.683,2.191c-0.025,0.092-0.053,0.182-0.077,0.273c-0.582,2.264-0.891,4.637-0.891,7.078   c0,15.693,12.762,28.461,28.448,28.461c15.693,0,28.46-12.768,28.46-28.461c0-2.273-0.275-4.48-0.781-6.602   C218.605,449.828,218.416,449.145,218.203,448.473z M283.156,448.641c-0.102-0.326-0.215-0.646-0.328-0.967   c-0.092-0.264-0.191-0.523-0.29-0.781c-0.272-0.705-0.565-1.398-0.892-2.076c-0.004-0.01-0.008-0.018-0.013-0.027   c-3.362-6.965-9.481-12.355-16.929-14.756c-0.223-0.072-0.446-0.141-0.671-0.205c-0.443-0.131-0.892-0.252-1.343-0.361   c-0.462-0.109-0.926-0.213-1.395-0.301c-0.232-0.043-0.464-0.086-0.697-0.123c-0.644-0.105-1.293-0.189-1.948-0.25   c-0.151-0.014-0.303-0.023-0.454-0.035c-0.727-0.055-1.458-0.094-2.197-0.094c-0.588,0-1.173,0.025-1.748,0.059   c-0.331,0.021-0.661,0.045-0.989,0.076l-0.734,0.088c-1.443,0.174-2.854,0.461-4.227,0.846c-0.051,0.014-0.103,0.029-0.154,0.043   c-1.312,0.377-2.585,0.848-3.816,1.402c-0.094,0.043-0.189,0.086-0.282,0.129c-0.589,0.273-1.168,0.564-1.734,0.875   c-0.071,0.039-0.14,0.082-0.21,0.121c-0.496,0.279-0.98,0.574-1.458,0.881c-0.116,0.074-0.234,0.146-0.349,0.225   c-0.501,0.332-0.992,0.682-1.471,1.045c-0.135,0.104-0.268,0.211-0.401,0.316c-0.376,0.295-0.744,0.602-1.104,0.916   c-0.13,0.113-0.264,0.223-0.392,0.34c-0.416,0.375-0.816,0.766-1.209,1.164c-0.166,0.168-0.327,0.34-0.489,0.514   c-0.287,0.305-0.565,0.619-0.838,0.938c-0.204,0.238-0.405,0.48-0.601,0.725c-0.26,0.324-0.513,0.654-0.759,0.99   c-0.163,0.223-0.324,0.447-0.48,0.676c-0.239,0.346-0.469,0.701-0.693,1.059c-0.191,0.307-0.375,0.617-0.554,0.93   c-0.171,0.299-0.338,0.6-0.499,0.904c-0.134,0.256-0.268,0.512-0.394,0.77c-0.227,0.465-0.441,0.936-0.643,1.414   c-0.108,0.256-0.207,0.518-0.307,0.777c-0.128,0.332-0.25,0.666-0.366,1.002c-0.088,0.256-0.179,0.51-0.26,0.768   c-0.16,0.51-0.302,1.029-0.433,1.553c-0.556,2.215-0.854,4.533-0.854,6.918c0,15.693,12.762,28.461,28.448,28.461   c15.686,0,28.447-12.768,28.447-28.461c0-2.367-0.295-4.668-0.842-6.869C283.469,449.711,283.321,449.172,283.156,448.641z    M288.448,473.697c-2.6,5.074-6.349,9.463-10.907,12.816h21.819C294.799,483.16,291.049,478.771,288.448,473.697z"/></g><g id="Layer_1"/></svg>